<?xml version="1.0" encoding="UTF-8" standalone="no"?>
<svg
   xmlns:dc="http://purl.org/dc/elements/1.1/"
   xmlns:cc="http://creativecommons.org/ns#"
   xmlns:rdf="http://www.w3.org/1999/02/22-rdf-syntax-ns#"
   xmlns:svg="http://www.w3.org/2000/svg"
   xmlns="http://www.w3.org/2000/svg"
   xmlns:sodipodi="http://sodipodi.sourceforge.net/DTD/sodipodi-0.dtd"
   xmlns:inkscape="http://www.inkscape.org/namespaces/inkscape"
   viewBox="0 0 4096 4096"
   version="1.1"
   id="svg17"
   sodipodi:docname="o-boticario-logo.svg"
   width="4096"
   height="4096"
   inkscape:export-filename="G:\Users\suitedoalex\sites\svg\o-boticario-logo-0.png"
   inkscape:export-xdpi="96"
   inkscape:export-ydpi="96"
   inkscape:version="0.92.2 (5c3e80d, 2017-08-06)">
  <metadata
     id="metadata21">
    <rdf:RDF>
      <cc:Work
         rdf:about="">
        <dc:format>image/svg+xml</dc:format>
        <dc:type
           rdf:resource="http://purl.org/dc/dcmitype/StillImage" />
        <dc:title></dc:title>
      </cc:Work>
    </rdf:RDF>
  </metadata>
  <sodipodi:namedview
     pagecolor="#ffffff"
     bordercolor="#666666"
     borderopacity="1"
     objecttolerance="10"
     gridtolerance="10"
     guidetolerance="10"
     inkscape:pageopacity="0"
     inkscape:pageshadow="2"
     inkscape:window-width="1600"
     inkscape:window-height="837"
     id="namedview19"
     showgrid="false"
     inkscape:measure-start="0,0"
     inkscape:measure-end="0,0"
     inkscape:zoom="0.044194174"
     inkscape:cx="5556.1323"
     inkscape:cy="3581.7983"
     inkscape:window-x="-8"
     inkscape:window-y="-8"
     inkscape:window-maximized="1"
     inkscape:current-layer="Group_1154" />
  <defs
     id="defs4">
    <style
       id="style2">.cls-1{fill:#fff;fill-rule:evenodd}</style>
  </defs>
  <g
     id="Group_1154"
     data-name="Group 1154"
     transform="translate(-151.819,4043.129)"
     style="fill:#000000">
    <path
       id="Path_15"
       data-name="Path 15"
       class="cls-1"
       d="m 1028.6242,-2025.3714 a 180.66112,180.66112 0 0 1 49.3922,129.8616 182.45405,182.45405 0 0 1 -30.3641,104.992 c -59.32067,81.9347 -192.5368,94.3695 -266.37439,26.3348 a 176.92105,176.92105 0 0 1 -53.40213,-131.3268 175.05101,175.05101 0 0 1 53.76842,-129.4953 c 64.39101,-59.9955 183.26376,-61.827 246.9222,-0.3663 z m -54.13471,29.9977 a 166.12495,166.12495 0 0 1 28.16621,99.8639 185.53865,185.53865 0 0 1 -14.99882,82.6672 91.034236,91.034236 0 0 1 -153.99862,17.9293 163.67655,163.67655 0 0 1 -32.19551,-100.5965 164.3513,164.3513 0 0 1 28.16625,-101.3291 94.600804,94.600804 0 0 1 144.86049,1.4652 z"
       style="fill:#000000;fill-rule:evenodd;stroke-width:19.27874565"
       inkscape:connector-curvature="0"
       inkscape:export-xdpi="6.5548725"
       inkscape:export-ydpi="6.5548725" />
    <path
       id="Path_16"
       data-name="Path 16"
       class="cls-1"
       d="m 1889.3624,-2025.3714 a 195.98773,195.98773 0 0 1 19.0281,234.8536 c -59.2629,81.9347 -192.4212,94.4659 -266.2973,26.3348 a 178.09705,178.09705 0 0 1 -53.4022,-131.3268 175.05101,175.05101 0 0 1 53.7685,-129.4953 c 64.391,-59.9955 183.2637,-61.827 246.9221,-0.3663 z m -54.1348,29.9977 a 166.12495,166.12495 0 0 1 28.1663,99.8639 185.53865,185.53865 0 0 1 -14.9989,82.6672 91.034236,91.034236 0 0 1 -153.9986,17.9293 163.67655,163.67655 0 0 1 -32.1955,-100.5965 164.3513,164.3513 0 0 1 28.1662,-101.3291 94.600804,94.600804 0 0 1 144.8605,1.4652 z"
       style="fill:#000000;fill-rule:evenodd;stroke-width:19.27874565"
       inkscape:connector-curvature="0"
       inkscape:export-xdpi="6.5548725"
       inkscape:export-ydpi="6.5548725" />
    <path
       id="Path_17"
       data-name="Path 17"
       class="cls-1"
       d="m 3607.542,-2025.3714 a 195.96845,195.96845 0 0 1 19.0281,234.8536 c -59.2629,81.9347 -192.4212,94.4659 -266.2973,26.3348 a 178.09705,178.09705 0 0 1 -53.4792,-131.3268 175.05101,175.05101 0 0 1 53.7684,-129.4953 c 64.391,-59.9955 183.2637,-61.827 246.9221,-0.3663 z m -54.1347,29.9977 a 166.12495,166.12495 0 0 1 28.1662,99.8639 185.55792,185.55792 0 0 1 -14.9989,82.6672 91.034236,91.034236 0 0 1 -153.9986,17.9293 163.67655,163.67655 0 0 1 -32.1955,-100.5965 164.3513,164.3513 0 0 1 28.1663,-101.3291 94.620082,94.620082 0 0 1 144.8605,1.4652 z"
       style="fill:#000000;fill-rule:evenodd;stroke-width:19.27874565"
       inkscape:connector-curvature="0"
       inkscape:export-xdpi="6.5548725"
       inkscape:export-ydpi="6.5548725" />
    <path
       id="Path_18"
       data-name="Path 18"
       class="cls-1"
       d="m 2215.5973,-2062.3095 h 73.1628 v 332.1535 h -73.1628 z"
       style="fill:#000000;fill-rule:evenodd;stroke-width:19.27874565"
       inkscape:connector-curvature="0"
       inkscape:export-xdpi="6.5548725"
       inkscape:export-ydpi="6.5548725" />
    <path
       id="Path_19"
       data-name="Path 19"
       class="cls-1"
       d="m 3179.8623,-2062.3095 h 73.1628 v 332.1535 h -73.1628 z"
       style="fill:#000000;fill-rule:evenodd;stroke-width:19.27874565"
       inkscape:connector-curvature="0"
       inkscape:export-xdpi="6.5548725"
       inkscape:export-ydpi="6.5548725" />
    <path
       id="Path_20"
       data-name="Path 20"
       class="cls-1"
       d="m 3146.2016,-2062.3095 v 42.0662 c -36.2055,-9.1381 -65.1043,-7.7115 -82.301,6.5933 a 52.052613,52.052613 0 0 0 -17.1966,32.1955 125.31185,125.31185 0 0 0 -1.0989,23.4044 v 227.8748 h -73.1628 v -217.6378 a 118.02448,118.02448 0 0 1 40.9673,-96.2009 c 31.0966,-23.4044 77.115,-26.9902 132.792,-18.2955 z"
       style="fill:#000000;fill-rule:evenodd;stroke-width:19.27874565"
       inkscape:connector-curvature="0"
       inkscape:export-xdpi="6.5548725"
       inkscape:export-ydpi="6.5548725" />
    <path
       id="Path_21"
       data-name="Path 21"
       class="cls-1"
       d="m 2176.0951,-1729.4234 -9.1381,-36.9381 c -36.2248,9.1381 -65.1236,7.7115 -82.301,-6.5933 a 52.052613,52.052613 0 0 1 -17.1966,-32.1955 125.4468,125.4468 0 0 1 -1.0989,-23.4044 v -190.5897 h 105.7247 v -42.7988 h -105.7247 v -57.0651 c 1.0989,-42.7988 -26.9902,-55.5999 -73.1628,-50.8381 v 331.4017 a 118.02448,118.02448 0 0 0 40.9673,96.2009 c 30.7303,23.4044 81.5684,27.4337 141.9301,12.8011 z"
       style="fill:#000000;fill-rule:evenodd;stroke-width:19.27874565"
       inkscape:connector-curvature="0"
       inkscape:export-xdpi="6.5548725"
       inkscape:export-ydpi="6.5548725" />
    <path
       id="Path_22"
       data-name="Path 22"
       class="cls-1"
       d="m 2607.0329,-1738.2145 c -66.9358,28.5325 -163.5223,20.4933 -209.5985,-16.8304 -36.6296,-29.2651 -56.6988,-77.115 -56.6988,-140.4649 a 175.05101,175.05101 0 0 1 53.7684,-129.4953 c 51.5707,-48.1969 139.7324,-58.5303 203.3908,-33.2944 v 44.6303 a 134.31502,134.31502 0 0 0 -142.2964,9.1381 c -28.9181,24.137 -39.5022,65.5477 -39.1359,106.8235 a 164.85255,164.85255 0 0 0 31.4629,103.1606 106.72713,106.72713 0 0 0 90.3595,31.8292 121.4561,121.4561 0 0 0 57.0651,-16.0978 l 11.7022,40.6011 z"
       style="fill:#000000;fill-rule:evenodd;stroke-width:19.27874565"
       inkscape:connector-curvature="0"
       inkscape:export-xdpi="6.5548725"
       inkscape:export-ydpi="6.5548725" />
    <path
       id="Path_23"
       data-name="Path 23"
       class="cls-1"
       d="m 2657.4854,-2010.3726 v -43.917 c 97.2998,-29.2651 147.7909,-69.1335 181.7986,-113.7446 h 59.6291 a 279.002,279.002 0 0 1 -126.5649,99.1314 189.41367,189.41367 0 0 1 85.2313,16.464 101.30981,101.30981 0 0 1 55.5999,78.6573 280.40935,280.40935 0 0 1 2.5641,46.4618 v 200.7688 h -11.3359 c -34.7018,0 -54.8673,-11.7022 -57.8363,-39.8684 v 0 a 137.82375,137.82375 0 0 1 -104.6257,45.7291 126.68064,126.68064 0 0 1 -87.0628,-27.4336 93.039225,93.039225 0 0 1 -28.9181,-67.3021 98.321601,98.321601 0 0 1 53.7684,-94.0032 211.25649,211.25649 0 0 1 104.2594,-23.7707 l 59.9955,0.3663 v -20.474 a 76.112487,76.112487 0 0 0 -12.0685,-43.5314 73.259232,73.259232 0 0 0 -29.2651,-24.8696 c -34.027,-15.423 -84.8265,-9.1381 -145.2268,11.3359 z m 186.5604,117.4269 h -48.1968 a 126.66136,126.66136 0 0 0 -78.638,20.8596 62.135396,62.135396 0 0 0 -20.127,53.0358 55.677017,55.677017 0 0 0 29.6314,52.3032 62.829431,62.829431 0 0 0 26.9902,6.5934 93.193455,93.193455 0 0 0 85.5977,-55.5999 69.981846,69.981846 0 0 0 4.7618,-25.9685 v -51.2236 z"
       style="fill:#000000;fill-rule:evenodd;stroke-width:19.27874565"
       inkscape:connector-curvature="0"
       inkscape:export-xdpi="6.5548725"
       inkscape:export-ydpi="6.5548725" />
    <path
       id="Path_24"
       data-name="Path 24"
       class="cls-1"
       d="m 1209.2853,-2194.3689 h -24.8696 c -0.3662,0 -0.3662,0 -0.7325,-0.3663 v 0 c -0.3663,0 -0.7326,0 -0.7326,-0.3663 h -0.3663 c -0.3663,0 -0.3663,0 -0.7326,-0.3663 h -0.3663 l -0.7326,-0.3663 h -0.3663 l -0.7326,-0.3663 h -0.3663 l -0.7326,-0.3663 h -0.3663 l -0.7326,-0.3663 v 0 l -0.3663,-0.3663 h -0.3663 l -0.3663,-0.3663 v 0 l -0.3663,-0.3663 h -0.3663 l -0.7326,-0.3663 -0.3662,-0.3663 -0.3663,-0.3663 v 0 l -0.3663,-0.3663 v 0 l -0.3663,-0.3663 -0.3663,-0.3663 -0.7326,-0.3663 -0.3663,-0.3663 -0.3663,-0.3663 v 0 l -0.3663,-0.3662 v 0 l -0.3663,-0.3663 v 0 l -0.7326,-0.7326 v 0 l -0.3663,-0.3663 -0.3663,-0.3663 -0.3663,-0.3663 v 0 l -0.7326,-0.7326 v 0 l -1.0989,-1.0989 v 0 l -0.7326,-0.7326 v -0.347 a 5.0510313,5.0510313 0 0 1 -1.0989,-1.4652 v 0 a 15.885686,15.885686 0 0 1 -1.4651,-2.5641 45.690627,45.690627 0 0 1 -4.3763,-28.1277 h 183.9963 a 207.13084,207.13084 0 0 1 122.5357,34.027 119.21976,119.21976 0 0 1 48.6596,97.2999 112.68427,112.68427 0 0 1 -29.9977,78.6572 163.86934,163.86934 0 0 1 -50.1248,34.027 184.09274,184.09274 0 0 1 59.9955,29.6314 141.66022,141.66022 0 0 1 53.4021,113.3976 137.20683,137.20683 0 0 1 -32.9281,91.4584 c -64.0247,71.3314 -208.2104,82.301 -287.8895,23.1345 a 141.73734,141.73734 0 0 1 -53.4021,-79.7369 v 0 a 349.3887,349.3887 0 0 1 -9.8707,-80.1032 v -257.699 a 91.593319,91.593319 0 0 1 53.0358,6.5934 62.482414,62.482414 0 0 1 23.1345,57.065 l -0.3663,196.7975 a 196.75888,196.75888 0 0 0 24.5033,99.4976 100.24948,100.24948 0 0 0 50.1247,43.5314 133.02334,133.02334 0 0 0 117.4269,-12.0685 c 34.0269,-24.8696 37.3043,-66.5695 36.938,-92.191 a 104.10523,104.10523 0 0 0 -40.601,-87.7954 126.69991,126.69991 0 0 0 -73.8954,-21.5729 h -66.9358 v -49.3921 h 73.1628 a 79.775448,79.775448 0 0 0 18.2955,-4.0293 67.109313,67.109313 0 0 0 28.9181,-14.2663 105.28123,105.28123 0 0 0 29.9978,-83.3998 c -2.9304,-40.9674 -26.7011,-79.3706 -115.2291,-79.3706 h -113.1277 z"
       style="fill:#000000;fill-rule:evenodd;stroke-width:19.27874565"
       inkscape:connector-curvature="0"
       inkscape:export-xdpi="6.5548725"
       inkscape:export-ydpi="6.5548725" />
  </g>
</svg>
